<?xml version="1.0" encoding="UTF-8"?>
<svg width="26px" height="41px" viewBox="0 0 26 41" version="1.1" xmlns="http://www.w3.org/2000/svg" xmlns:xlink="http://www.w3.org/1999/xlink">
        <path  fill="#fff" d="M16.2,0.46 L16.2,29.32 C16.2,30.7600072 16.5499965,31.7899969 17.25,32.41 C17.9500035,33.0300031 18.9199938,33.34 20.16,33.34 C21.1200048,33.34 21.9499965,33.2300011 22.65,33.01 C23.3500035,32.7899989 23.9799972,32.4600022 24.54,32.02 L25.62,38.32 C24.619995,39.0400036 23.3600076,39.599998 21.84,40 C20.3199924,40.400002 18.760008,40.6 17.16,40.6 C14.8799886,40.6 12.9100083,40.2800032 11.25,39.64 C9.5899917,38.9999968 8.3100045,37.980007 7.41,36.58 C6.5099955,35.179993 6.0400002,33.3200116 6,31 L6,3.28 L16.2,0.46 Z M25.14,10 L25.14,17.26 L0.84,17.26 L0.84,10 L25.14,10 Z" id="t" ></path>
</svg>